<?xml version="1.0" encoding="UTF-8" standalone="no"?>
<svg width="738px" height="149px" viewBox="0 0 738 149" version="1.1" xmlns="http://www.w3.org/2000/svg" xmlns:xlink="http://www.w3.org/1999/xlink" xmlns:sketch="http://www.bohemiancoding.com/sketch/ns">
    <!-- Generator: Sketch 3.2.2 (9983) - http://www.bohemiancoding.com/sketch -->
    <title>cucumber-ltd</title>
    <desc>Created with Sketch.</desc>
    <defs></defs>
    <g id="Logos" stroke="none" stroke-width="1" fill="none" fill-rule="evenodd" sketch:type="MSPage">
        <g id="cucumber-ltd" sketch:type="MSLayerGroup" transform="translate(-1.000000, -1.000000)">
            <path d="M525.041905,87.421875 C518.00381,87.421875 513.546349,90.9375 510.261905,96.328125 C510.261905,94.921875 510.965714,93.28125 510.965714,92.109375 L510.965714,89.765625 L499.235556,89.765625 L499.235556,148.359375 L510.965714,148.359375 L510.965714,114.609375 C510.965714,105 516.126984,99.140625 525.041905,99.140625 L527.387937,99.140625 L527.387937,87.421875 L525.041905,87.421875 L525.041905,87.421875 Z" id="path2992" fill="#000000" sketch:type="MSShapeGroup"></path>
            <path d="M48.0936508,108.984375 C44.8092063,103.828125 40.1171429,100.3125 33.3136508,100.3125 C22.5219048,100.3125 14.78,108.515625 14.78,118.828125 C14.78,129.140625 22.5219048,137.34375 33.3136508,137.34375 C40.1171429,137.34375 44.8092063,134.0625 48.0936508,128.90625 L58.8853968,135.234375 C53.724127,143.203125 44.1053968,149.0625 33.3136508,149.0625 C13.372381,149.0625 1.8768254,134.0625 1.8768254,119.0625 C1.8768254,104.0625 13.6069841,89.0625 33.3136508,89.0625 C45.5130159,89.0625 53.2549206,94.921875 58.8853968,102.890625 L48.0936508,108.984375 L48.0936508,108.984375 Z" id="path2994" fill="#000000" sketch:type="MSShapeGroup"></path>
            <path d="M69.2079365,90.46875 L81.4073016,90.46875 L81.4073016,122.34375 C81.4073016,130.78125 87.5069841,136.640625 95.2488889,136.640625 C102.990794,136.640625 109.090476,130.546875 109.090476,122.34375 L109.090476,90.46875 L121.289841,90.46875 L121.289841,123.28125 C121.289841,139.21875 108.855873,148.828125 95.2488889,148.828125 C81.6419048,148.828125 69.2079365,139.21875 69.2079365,123.28125 L69.2079365,90.46875 L69.2079365,90.46875 Z" id="path2996" fill="#000000" sketch:type="MSShapeGroup"></path>
            <path d="M178.533016,108.984375 C175.248571,103.828125 170.556508,100.3125 163.753016,100.3125 C152.96127,100.3125 145.219365,108.515625 145.219365,118.828125 C145.219365,129.140625 152.96127,137.34375 163.753016,137.34375 C170.556508,137.34375 175.248571,134.0625 178.533016,128.90625 L189.324762,135.234375 C184.163492,143.203125 174.544762,149.0625 163.753016,149.0625 C143.811746,149.0625 132.31619,134.0625 132.31619,119.0625 C132.31619,104.0625 143.811746,89.0625 163.753016,89.0625 C175.952381,89.0625 183.694286,94.921875 189.324762,102.890625 L178.533016,108.984375 L178.533016,108.984375 Z" id="path2998" fill="#000000" sketch:type="MSShapeGroup"></path>
            <path d="M199.647302,90.46875 L211.846667,90.46875 L211.846667,122.34375 C211.846667,130.78125 217.946349,136.640625 225.688254,136.640625 C233.195556,136.640625 239.529841,130.546875 239.529841,122.34375 L239.529841,90.46875 L251.729206,90.46875 L251.729206,123.28125 C251.729206,139.21875 239.295238,148.828125 225.688254,148.828125 C212.08127,148.828125 199.647302,139.21875 199.647302,123.28125 L199.647302,90.46875 L199.647302,90.46875 Z" id="path3000" fill="#000000" sketch:type="MSShapeGroup"></path>
            <path d="M266.978413,111.796875 C266.978413,97.265625 276.597143,89.0625 287.858095,89.0625 C296.538413,89.0625 302.638095,93.28125 304.984127,99.140625 L305.21873,99.140625 C307.564762,93.046875 313.664444,89.0625 322.344762,89.0625 C333.605714,89.0625 343.224444,97.5 343.224444,111.796875 L343.224444,147.421875 L331.025079,147.421875 L331.025079,111.796875 C331.025079,105 326.802222,101.015625 321.640952,101.015625 C315.775873,101.015625 311.553016,104.53125 311.553016,113.4375 L311.553016,147.1875 L299.353651,147.1875 L299.353651,113.4375 C299.353651,104.53125 295.130794,101.015625 289.265714,101.015625 C284.104444,101.015625 279.881587,105 279.881587,111.796875 L279.881587,147.1875 L267.682222,147.1875 L267.682222,111.796875 L266.978413,111.796875 Z" id="path3002" fill="#000000" sketch:type="MSShapeGroup"></path>
            <path d="M358.239048,73.59375 L370.438413,73.59375 L370.438413,97.5 L370.673016,97.5 C373.488254,92.8125 381.230159,89.0625 389.206667,89.0625 C403.986667,89.0625 418.766667,100.078125 418.766667,119.0625 C418.766667,138.046875 403.986667,149.0625 389.206667,149.0625 C381.230159,149.0625 373.488254,145.3125 370.673016,140.625 L370.438413,140.625 L370.438413,147.65625 L358.239048,147.65625 L358.239048,73.59375 L358.239048,73.59375 Z M388.033651,100.546875 C377.945714,100.546875 370.438413,108.515625 370.438413,119.0625 C370.438413,129.609375 377.945714,137.578125 388.033651,137.578125 C398.35619,137.578125 405.863492,129.609375 405.863492,119.0625 C405.863492,108.28125 398.35619,100.546875 388.033651,100.546875 L388.033651,100.546875 Z" id="path3004" fill="#000000" sketch:type="MSShapeGroup"></path>
            <path d="M484.455556,135 C477.652063,143.671875 468.267937,148.828125 457.945397,148.828125 C438.004127,148.828125 426.508571,133.828125 426.508571,118.828125 C426.508571,103.828125 438.23873,89.0625 457.945397,89.0625 C469.675556,89.0625 487.505397,98.90625 487.505397,120.9375 L487.505397,123.046875 L440.350159,123.046875 C441.053968,131.71875 449.265079,138.046875 457.710794,138.046875 C464.279683,138.046875 469.910159,134.765625 474.133016,129.140625 L484.455556,135 L484.455556,135 Z M473.194603,112.96875 C470.613968,104.296875 464.279683,99.609375 456.303175,99.609375 C448.56127,99.609375 442.226984,104.53125 440.115556,112.96875 L473.194603,112.96875 L473.194603,112.96875 Z" id="path3006" fill="#000000" sketch:type="MSShapeGroup"></path>
            <path d="M618.648571,147.421875 L618.648571,73.828125 L631.08254,73.828125 L631.08254,147.421875 L618.413968,147.421875" id="polyline3008" fill="#65696B" sketch:type="MSShapeGroup"></path>
            <path d="M642.578095,102.421875 L642.578095,90.9375 L649.61619,90.9375 L649.61619,75.46875 L661.815556,72.1875 L661.815556,90.9375 L671.434286,90.9375 L671.434286,102.421875 L661.815556,102.421875 L661.815556,147.421875 L649.61619,147.421875 L649.61619,102.421875 L642.578095,102.421875 Z" id="polygon3010" fill="#65696B" sketch:type="MSShapeGroup"></path>
            <path d="M726.566032,140.390625 L726.566032,140.390625 C722.343175,145.546875 715.305079,148.828125 707.563175,148.828125 C688.794921,148.828125 678.003175,133.59375 678.003175,119.0625 C678.003175,105 689.733333,89.0625 708.032381,89.0625 C716.478095,89.0625 723.046984,92.578125 726.096825,97.5 L726.331429,97.5 L726.331429,73.59375 L738.530794,73.59375 L738.530794,147.421875 L726.331429,147.421875 L726.331429,140.390625 L726.566032,140.390625 Z M709.205397,137.34375 C718.824127,137.34375 727.035238,129.140625 727.035238,119.0625 C727.035238,108.75 718.824127,100.546875 709.205397,100.546875 C699.352063,100.546875 691.140952,108.75 691.140952,119.0625 C691.140952,129.140625 699.352063,137.34375 709.205397,137.34375 L709.205397,137.34375 Z" id="path3012" fill="#65696B" sketch:type="MSShapeGroup"></path>
            <path d="M560.554773,1.58618203 C539.321934,1.58618203 522.138503,18.7529006 522.138503,39.9650883 C522.138503,58.6411148 535.53915,74.1590133 553.223423,77.6115727 L553.223423,88.5979008 C576.214755,85.1350055 596.57219,66.9021141 598.091281,42.968018 C599.005646,28.5616969 591.815751,13.8545843 579.689594,6.71313516 C578.995321,6.30425789 578.289942,5.89834828 577.563503,5.54126016 C576.823292,5.17740281 576.06319,4.82277984 575.290785,4.51586953 C575.045601,4.413405 574.805358,4.32045328 574.55765,4.22290078 C573.883032,3.9741082 573.202317,3.69394875 572.504872,3.49047891 C568.745762,2.25268383 564.727331,1.58618203 560.554773,1.58618203 L560.554773,1.58618203 Z" id="path3943" fill="#65696B" sketch:type="MSShapeGroup"></path>
            <path d="M568.47263,15.7951664 C567.158486,15.6605836 565.774693,16.117432 564.806955,17.2600102 C564.103146,18.1975102 563.663265,19.1057133 563.194058,20.0432133 C561.786439,23.3244633 562.255646,26.8400883 564.367074,29.4182133 C567.651519,28.7150883 570.437431,26.6203617 571.84505,23.3391117 C572.314257,22.4016117 572.578185,21.2004398 572.578185,20.2629398 C572.724812,17.7727055 570.662871,16.0194705 568.47263,15.7951664 L568.47263,15.7951664 Z M551.390586,16.014893 C549.248457,16.2185979 547.211717,17.9191898 547.211717,20.2629398 C547.211717,21.2004398 547.475646,22.4016117 547.944852,23.3391117 C549.352471,26.6203617 552.358324,28.7150883 555.642769,29.4182133 C557.519594,26.8400883 558.003463,23.3244633 556.595844,20.0432133 C556.126638,19.1057133 555.686757,18.1828617 554.982947,17.4797367 C554.015209,16.3371586 552.675864,15.8926702 551.390586,16.014893 L551.390586,16.014893 Z M539.880368,27.2941898 C536.1809,27.4838695 534.528483,32.1281742 537.60765,34.5451664 C538.546062,35.2482914 539.45515,35.7609867 540.393562,36.2297367 C543.678007,37.6359867 547.475646,37.1525883 550.290884,35.2775883 C549.587074,32.2307133 547.197054,29.4328617 543.91261,28.0266117 C542.739594,27.5578617 541.786519,27.2941898 540.613503,27.2941898 C540.349574,27.264893 540.126999,27.2815336 539.880368,27.2941898 L539.880368,27.2941898 Z M576.023919,41.5031742 C573.874917,41.4619711 571.698423,42.0891117 569.9389,43.2609867 C570.642709,46.3078617 573.032729,49.1057133 576.317173,50.5119633 C577.490189,50.9807133 578.443265,51.2443852 579.616281,51.2443852 C583.839138,51.4787602 585.906578,46.2639164 582.622134,43.9201664 C581.683721,43.2170414 580.774634,42.7775883 579.836221,42.3088383 C578.604554,41.7814945 577.31332,41.5278938 576.023919,41.5031742 L576.023919,41.5031742 Z M543.985923,41.7229008 C542.696522,41.7476273 541.405289,42.0012211 540.173622,42.5285648 C539.000606,42.9973148 538.091519,43.5100102 537.387709,44.2131352 C534.337868,46.7912602 536.390646,51.6984867 540.613503,51.4641117 C541.786519,51.4641117 542.974197,51.2004398 543.91261,50.7316898 C547.197054,49.3254398 549.528423,46.5275883 549.99763,43.4807133 C548.238106,42.3088383 546.134926,41.6817023 543.985923,41.7229008 L543.985923,41.7229008 Z M555.862709,48.9006352 C552.578265,49.6037602 549.792352,51.6984867 548.384733,54.9797367 C547.915527,55.9172367 547.651598,57.0451664 547.651598,57.9826664 C547.416995,61.9670414 552.856856,64.1057133 555.202888,61.0588383 C555.906697,60.1213383 556.346578,59.2131352 556.815785,58.2756352 C558.223404,55.2287602 557.739535,51.7131352 555.862709,48.9006352 L555.862709,48.9006352 Z M564.587015,49.1203617 C562.710189,51.6984867 562.22632,55.2141117 563.633939,58.4953617 C564.103146,59.4328617 564.543027,60.3557133 565.246836,61.0588383 C567.827471,63.8713383 573.252669,61.7912602 573.018066,58.2756352 C573.018066,57.3381352 572.754138,56.1369633 572.284931,55.1994633 C570.877312,51.9182133 567.871459,49.8234867 564.587015,49.1203617 L564.587015,49.1203617 Z" id="rect4005" fill="#FFFFFF" sketch:type="MSShapeGroup"></path>
        </g>
    </g>
</svg>